<svg width="79" height="30" viewBox="0 0 79 30" fill="none" xmlns="http://www.w3.org/2000/svg">
<g filter="url(#filter0_d_41_88)">
<path fill-rule="evenodd" clip-rule="evenodd" d="M14 20C16.1217 20 18.1566 19.1571 19.6569 17.6569C21.1571 16.1566 22 14.1217 22 12C22 9.87827 21.1571 7.84344 19.6569 6.34315C18.1566 4.84285 16.1217 4 14 4C11.8783 4 9.84344 4.84285 8.34315 6.34315C6.84285 7.84344 6 9.87827 6 12C6 14.1217 6.84285 16.1566 8.34315 17.6569C9.84344 19.1571 11.8783 20 14 20ZM15 8C15 7.73478 14.8946 7.48043 14.7071 7.29289C14.5196 7.10536 14.2652 7 14 7C13.7348 7 13.4804 7.10536 13.2929 7.29289C13.1054 7.48043 13 7.73478 13 8V12C13.0001 12.2652 13.1055 12.5195 13.293 12.707L16.121 15.536C16.2139 15.6289 16.3242 15.7026 16.4456 15.7529C16.567 15.8032 16.6971 15.8291 16.8285 15.8291C16.9599 15.8291 17.09 15.8032 17.2114 15.7529C17.3328 15.7026 17.4431 15.6289 17.536 15.536C17.6289 15.4431 17.7026 15.3328 17.7529 15.2114C17.8032 15.09 17.8291 14.9599 17.8291 14.8285C17.8291 14.6971 17.8032 14.567 17.7529 14.4456C17.7026 14.3242 17.6289 14.2139 17.536 14.121L15 11.586V8Z" fill="#023047"/>
<path d="M38.168 14.464C38.168 15.2 37.976 15.8453 37.592 16.4C37.208 16.9547 36.6907 17.3867 36.04 17.696C35.3893 18.0053 34.6693 18.16 33.88 18.16C33.1333 18.16 32.4293 18.0053 31.768 17.696C31.1173 17.3867 30.5893 16.9493 30.184 16.384C29.7893 15.808 29.592 15.136 29.592 14.368C29.592 13.984 29.6613 13.6373 29.8 13.328C29.9493 13.0187 30.1307 12.7467 30.344 12.512C30.5573 12.2773 30.7653 12.0853 30.968 11.936C30.7653 11.808 30.584 11.6427 30.424 11.44C30.264 11.2373 30.136 11.0133 30.04 10.768C29.9547 10.512 29.912 10.2613 29.912 10.016C29.912 9.472 30.0347 8.992 30.28 8.576C30.5253 8.14933 30.8453 7.792 31.24 7.504C31.6347 7.216 32.0613 7.00267 32.52 6.864C32.9893 6.71467 33.4427 6.64 33.88 6.64C34.3173 6.64 34.7707 6.71467 35.24 6.864C35.7093 7.00267 36.1413 7.216 36.536 7.504C36.9307 7.78133 37.2507 8.128 37.496 8.544C37.7413 8.96 37.864 9.44 37.864 9.984C37.864 10.2293 37.816 10.48 37.72 10.736C37.624 10.992 37.496 11.2267 37.336 11.44C37.176 11.6533 36.9947 11.8187 36.792 11.936C37.0053 12.096 37.2187 12.2987 37.432 12.544C37.6453 12.7787 37.8213 13.056 37.96 13.376C38.0987 13.696 38.168 14.0587 38.168 14.464ZM35.08 14.288C35.08 14.1067 35.048 13.952 34.984 13.824C34.9307 13.6853 34.8453 13.568 34.728 13.472C34.6213 13.376 34.4933 13.3067 34.344 13.264C34.2053 13.2107 34.0507 13.184 33.88 13.184C33.6453 13.184 33.4373 13.232 33.256 13.328C33.0747 13.4133 32.9307 13.5413 32.824 13.712C32.728 13.872 32.68 14.064 32.68 14.288C32.68 14.448 32.712 14.5973 32.776 14.736C32.84 14.864 32.9253 14.9813 33.032 15.088C33.1387 15.184 33.2613 15.2587 33.4 15.312C33.5493 15.3653 33.7093 15.392 33.88 15.392C34.1147 15.392 34.3227 15.344 34.504 15.248C34.6853 15.1413 34.824 15.008 34.92 14.848C35.0267 14.6773 35.08 14.4907 35.08 14.288ZM33 10.08C33 10.272 33.0427 10.432 33.128 10.56C33.2133 10.6773 33.3253 10.768 33.464 10.832C33.6027 10.896 33.7413 10.928 33.88 10.928C34.0293 10.928 34.168 10.896 34.296 10.832C34.4347 10.768 34.5467 10.6773 34.632 10.56C34.728 10.432 34.776 10.272 34.776 10.08C34.776 9.94133 34.7387 9.81333 34.664 9.696C34.5893 9.57867 34.4827 9.488 34.344 9.424C34.216 9.34933 34.0613 9.312 33.88 9.312C33.7093 9.312 33.5547 9.34933 33.416 9.424C33.288 9.488 33.1867 9.57867 33.112 9.696C33.0373 9.81333 33 9.94133 33 10.08ZM53.399 6.64V18H50.279V13.552H46.471V18H43.351V6.64H46.471V10.832H50.279V6.64H53.399ZM55.351 18V6.64H60.567C61.1217 6.64 61.6337 6.752 62.103 6.976C62.5723 7.2 62.9777 7.504 63.319 7.888C63.6603 8.26133 63.9217 8.68267 64.103 9.152C64.295 9.62133 64.391 10.096 64.391 10.576C64.391 11.0133 64.327 11.4347 64.199 11.84C64.071 12.2453 63.8843 12.6187 63.639 12.96C63.3937 13.2907 63.1003 13.5787 62.759 13.824L65.159 18H61.735L59.735 14.512H58.471V18H55.351ZM58.471 11.792H60.439C60.567 11.792 60.6897 11.744 60.807 11.648C60.9243 11.552 61.0203 11.4133 61.095 11.232C61.1803 11.0507 61.223 10.832 61.223 10.576C61.223 10.3093 61.175 10.0907 61.079 9.92C60.9937 9.73867 60.8817 9.6 60.743 9.504C60.615 9.408 60.487 9.36 60.359 9.36H58.471V11.792ZM73.0279 10.352C73.0279 10.352 72.9372 10.2987 72.7559 10.192C72.5745 10.0853 72.3345 9.968 72.0359 9.84C71.7372 9.70133 71.4119 9.57867 71.0599 9.472C70.7079 9.36533 70.3612 9.312 70.0199 9.312C69.7532 9.312 69.5345 9.35467 69.3639 9.44C69.1932 9.52533 69.1079 9.66933 69.1079 9.872C69.1079 10.064 69.1932 10.2187 69.3639 10.336C69.5345 10.4533 69.7745 10.56 70.0839 10.656C70.4039 10.752 70.7825 10.8693 71.2199 11.008C71.9239 11.2213 72.5319 11.4667 73.0439 11.744C73.5559 12.0213 73.9505 12.3787 74.2279 12.816C74.5052 13.2427 74.6439 13.8133 74.6439 14.528C74.6439 15.2107 74.5212 15.7867 74.2759 16.256C74.0305 16.7147 73.6999 17.0827 73.2839 17.36C72.8679 17.6373 72.4039 17.84 71.8919 17.968C71.3799 18.0853 70.8572 18.144 70.3239 18.144C69.7799 18.144 69.2092 18.0907 68.6119 17.984C68.0252 17.8667 67.4545 17.712 66.8999 17.52C66.3452 17.3173 65.8385 17.0827 65.3799 16.816L66.7239 14.08C66.7239 14.08 66.8305 14.144 67.0439 14.272C67.2572 14.4 67.5399 14.544 67.8919 14.704C68.2439 14.864 68.6332 15.008 69.0599 15.136C69.4972 15.264 69.9345 15.328 70.3719 15.328C70.7132 15.328 70.9479 15.2853 71.0759 15.2C71.2145 15.104 71.2839 14.9813 71.2839 14.832C71.2839 14.608 71.1665 14.4373 70.9319 14.32C70.6972 14.192 70.3879 14.0747 70.0039 13.968C69.6305 13.8507 69.2145 13.7173 68.7559 13.568C68.0945 13.344 67.5505 13.0933 67.1239 12.816C66.6972 12.528 66.3825 12.192 66.1799 11.808C65.9772 11.4133 65.8759 10.9387 65.8759 10.384C65.8759 9.54133 66.0732 8.83733 66.4679 8.272C66.8625 7.70667 67.3799 7.28 68.0199 6.992C68.6705 6.69333 69.3692 6.544 70.1159 6.544C70.6705 6.544 71.2039 6.61333 71.7159 6.752C72.2385 6.88 72.7239 7.04 73.1719 7.232C73.6305 7.424 74.0305 7.60533 74.3719 7.776L73.0279 10.352Z" fill="#023047"/>
</g>
<defs>
<filter id="filter0_d_41_88" x="0" y="0" width="80" height="32" filterUnits="userSpaceOnUse" color-interpolation-filters="sRGB">
<feFlood flood-opacity="0" result="BackgroundImageFix"/>
<feColorMatrix in="SourceAlpha" type="matrix" values="0 0 0 0 0 0 0 0 0 0 0 0 0 0 0 0 0 0 127 0" result="hardAlpha"/>
<feOffset dy="4"/>
<feGaussianBlur stdDeviation="2"/>
<feComposite in2="hardAlpha" operator="out"/>
<feColorMatrix type="matrix" values="0 0 0 0 0 0 0 0 0 0 0 0 0 0 0 0 0 0 0.25 0"/>
<feBlend mode="normal" in2="BackgroundImageFix" result="effect1_dropShadow_41_88"/>
<feBlend mode="normal" in="SourceGraphic" in2="effect1_dropShadow_41_88" result="shape"/>
</filter>
</defs>
</svg>
